HIERARCHY
ROOT Hips
{
	OFFSET 0.000000 0.000000 0.000000
	CHANNELS 6 Xposition Yposition Zposition Zrotation Yrotation Xrotation 
	JOINT LHipJoint
	{
		OFFSET 0.000000 0.000000 0.000000
		CHANNELS 3 Zrotation Yrotation Xrotation
		JOINT LeftUpLeg
		{
			OFFSET 1.363060 -1.794630 0.839290
			CHANNELS 3 Zrotation Yrotation Xrotation
			JOINT LeftLeg
			{
				OFFSET 2.448110 -6.726130 0.000000
				CHANNELS 3 Zrotation Yrotation Xrotation
				JOINT LeftFoot
				{
					OFFSET 2.562200 -7.039590 0.000000
					CHANNELS 3 Zrotation Yrotation Xrotation
					JOINT LeftToeBase
					{
						OFFSET 0.157640 -0.433110 2.322550
						CHANNELS 3 Zrotation Yrotation Xrotation
						End Site
						{
							OFFSET 0.000000 0.000000 0.000000
						}
					}
				}
			}
		}
	}
	JOINT RHipJoint
	{
		OFFSET 0.000000 0.000000 0.000000
		CHANNELS 3 Zrotation Yrotation Xrotation
		JOINT RightUpLeg
		{
			OFFSET -1.305520 -1.794630 0.839290
			CHANNELS 3 Zrotation Yrotation Xrotation
			JOINT RightLeg
			{
				OFFSET -2.542530 -6.985550 0.000000
				CHANNELS 3 Zrotation Yrotation Xrotation
				JOINT RightFoot
				{
					OFFSET -2.568260 -7.056230 0.000000
					CHANNELS 3 Zrotation Yrotation Xrotation
					JOINT RightToeBase
					{
						OFFSET -0.164730 -0.452590 2.363150
						CHANNELS 3 Zrotation Yrotation Xrotation
						End Site
						{
							OFFSET 0.000000 0.000000 0.000000
						}
					}
				}
			}
		}
	}
	JOINT LowerBack
	{
		OFFSET 0.000000 0.000000 0.000000
		CHANNELS 3 Zrotation Yrotation Xrotation
		JOINT Spine
		{
			OFFSET 0.028270 2.035590 -0.193380
			CHANNELS 3 Zrotation Yrotation Xrotation
			JOINT Spine1
			{
				OFFSET 0.056720 2.048850 -0.042750
				CHANNELS 3 Zrotation Yrotation Xrotation
				JOINT Neck
				{
					OFFSET 0.000000 0.000000 0.000000
					CHANNELS 3 Zrotation Yrotation Xrotation
					JOINT Neck1
					{
						OFFSET -0.054170 1.746240 0.172020
						CHANNELS 3 Zrotation Yrotation Xrotation
						JOINT Head
						{
							OFFSET 0.104070 1.761360 -0.123970
							CHANNELS 3 Zrotation Yrotation Xrotation
							End Site
							{
								OFFSET 0.000000 0.000000 0.000000
							}
						}
					}
				}
				JOINT LeftShoulder
				{
					OFFSET 0.000000 0.000000 0.000000
					CHANNELS 3 Zrotation Yrotation Xrotation
					JOINT LeftArm
					{
						OFFSET 3.362410 1.200890 -0.311210
						CHANNELS 3 Zrotation Yrotation Xrotation
						JOINT LeftForeArm
						{
							OFFSET 4.983000 -0.000000 -0.000000
							CHANNELS 3 Zrotation Yrotation Xrotation
							JOINT LeftHand
							{
								OFFSET 3.483560 -0.000000 -0.000000
								CHANNELS 3 Zrotation Yrotation Xrotation
								JOINT LeftFingerBase
								{
									OFFSET 0.000000 0.000000 0.000000
									CHANNELS 3 Zrotation Yrotation Xrotation
									JOINT LeftHandIndex1
									{
										OFFSET 0.715260 -0.000000 -0.000000
										CHANNELS 3 Zrotation Yrotation Xrotation
										End Site
										{
											OFFSET 0.000000 0.000000 0.000000
										}
									}
								}
								JOINT LThumb
								{
									OFFSET 0.000000 0.000000 0.000000
									CHANNELS 3 Zrotation Yrotation Xrotation
									End Site
									{
										OFFSET 0.000000 0.000000 0.000000
									}
								}
							}
						}
					}
				}
				JOINT RightShoulder
				{
					OFFSET 0.000000 0.000000 0.000000
					CHANNELS 3 Zrotation Yrotation Xrotation
					JOINT RightArm
					{
						OFFSET -3.136600 1.374050 -0.404650
						CHANNELS 3 Zrotation Yrotation Xrotation
						JOINT RightForeArm
						{
							OFFSET -5.241900 -0.000000 -0.000000
							CHANNELS 3 Zrotation Yrotation Xrotation
							JOINT RightHand
							{
								OFFSET -3.444170 -0.000000 -0.000000
								CHANNELS 3 Zrotation Yrotation Xrotation
								JOINT RightFingerBase
								{
									OFFSET 0.000000 0.000000 0.000000
									CHANNELS 3 Zrotation Yrotation Xrotation
									JOINT RightHandIndex1
									{
										OFFSET -0.622530 -0.000000 -0.000000
										CHANNELS 3 Zrotation Yrotation Xrotation
										End Site
										{
											OFFSET 0.000000 0.000000 0.000000
										}
									}
								}
								JOINT RThumb
								{
									OFFSET 0.000000 0.000000 0.000000
									CHANNELS 3 Zrotation Yrotation Xrotation
									End Site
									{
										OFFSET 0.000000 0.000000 0.000000
									}
								}
							}
						}
					}
				}
			}
		}
	}
}
MOTION
Frames: 10
Frame Time: 0.016667
-1.872755 16.270238 24.017118 -4.953395 20.008540 10.018142 -25.261396 24.086625 -4.460455 28.579431 -42.835669 -50.653798 42.078010 -83.927253 -36.728586 -36.136966 -69.541871 36.081813 0.000000 0.000000 0.000000 14.342202 -19.406889 1.870600 15.219931 12.607205 -20.391859 -10.379049 -24.782797 60.430499 35.775649 -58.325352 0.900499 0.000000 0.000000 0.000000 6.532359 -0.041695 12.098051 6.427835 -0.054240 -3.087598 -12.356829 0.924274 -15.910371 8.931024 -0.537165 -19.483218 2.027781 -0.669714 19.247140 0.000000 0.000000 0.000000 0.399190 0.291162 16.017593 -68.941712 -4.875690 7.729838 -159.596278 -86.325440 178.242968 14.709145 -17.231648 -0.980608 15.376287 -16.885863 0.000000 0.000000 0.000000 0.000000 0.000000 0.000000 0.000000 -21.920111 -12.946422 -5.096529 93.615592 17.578024 16.816538 39.543721 -60.542871 1.708052 -18.382056 26.388727 0.739388 -18.803820 26.000648 0.000000 0.000000 0.000000 0.000000 0.000000 0.000000 0.000000 
-1.887068 16.296798 24.204675 -4.664583 20.968250 9.852993 -25.401049 25.562997 -4.577734 27.546381 -44.086455 -50.282976 42.331961 -84.425157 -37.355558 -36.006943 -70.259330 35.895924 0.000000 0.000000 0.000000 14.457623 -19.652191 2.210444 14.876048 11.850557 -20.118217 -9.821740 -24.763121 59.665078 36.282304 -59.211786 1.262472 0.000000 0.000000 0.000000 6.538738 -0.310281 12.245924 6.526084 -0.388625 -3.138564 -12.388772 0.574004 -15.851061 8.881904 -0.542840 -19.493154 2.035942 -0.668900 19.244507 0.000000 0.000000 0.000000 0.360597 0.100333 16.061017 -68.938449 -4.895667 7.758250 -159.595397 -86.339925 178.259965 14.668251 -17.210942 -0.971020 15.329826 -16.868053 0.000000 0.000000 0.000000 0.000000 0.000000 0.000000 0.000000 -21.977993 -13.067625 -5.057957 93.607609 17.493501 16.811130 39.548612 -60.544338 1.710754 -18.386976 26.388341 0.741224 -18.807109 26.000878 0.000000 0.000000 0.000000 0.000000 0.000000 0.000000 0.000000 
-1.898768 16.324646 24.388527 -4.351836 21.898021 9.689278 -25.490459 27.008075 -4.680774 26.502462 -45.384837 -49.795953 42.469646 -84.744989 -37.822832 -35.911469 -70.815386 35.709604 0.000000 0.000000 0.000000 14.565735 -19.906332 2.562833 14.520884 11.104600 -19.854648 -9.267611 -24.702881 58.897321 36.745196 -60.057052 1.622250 0.000000 0.000000 0.000000 6.517285 -0.573279 12.403489 6.625085 -0.717366 -3.182225 -12.422461 0.228783 -15.794485 8.834198 -0.547931 -19.504838 2.044251 -0.667796 19.240857 0.000000 0.000000 0.000000 0.321069 -0.090284 16.103957 -68.935631 -4.920503 7.776165 -159.583305 -86.346604 178.271285 14.639316 -17.190450 -0.964590 15.296864 -16.849627 0.000000 0.000000 0.000000 0.000000 0.000000 0.000000 0.000000 -22.035947 -13.185223 -5.019030 93.598933 17.415015 16.797860 39.560547 -60.552144 1.712261 -18.382209 26.369442 0.742791 -18.799577 25.983486 0.000000 0.000000 0.000000 0.000000 0.000000 0.000000 0.000000 
-1.907480 16.353343 24.568048 -4.019247 22.800015 9.524823 -25.539296 28.432857 -4.781793 25.437285 -46.727746 -49.198111 42.434612 -84.904532 -38.087688 -35.835445 -71.204075 35.498258 0.000000 0.000000 0.000000 14.665794 -20.173334 2.930237 14.157225 10.375619 -19.605405 -8.721771 -24.604602 58.137383 37.159668 -60.858244 1.984480 0.000000 0.000000 0.000000 6.474015 -0.832989 12.583076 6.719703 -1.041909 -3.229062 -12.451510 -0.112214 -15.740392 8.788402 -0.552975 -19.513568 2.051384 -0.666704 19.240243 0.000000 0.000000 0.000000 0.284605 -0.274776 16.146636 -68.935213 -4.942918 7.803516 -159.580041 -86.358914 178.285301 14.604808 -17.171909 -0.956683 15.257720 -16.833500 0.000000 0.000000 0.000000 0.000000 0.000000 0.000000 0.000000 -22.091847 -13.305607 -4.982406 93.588460 17.334974 16.789689 39.570510 -60.558663 1.713875 -18.382130 26.361207 0.744190 -18.797557 25.976193 0.000000 0.000000 0.000000 0.000000 0.000000 0.000000 0.000000 
-1.912601 16.382463 24.743203 -3.668505 23.672315 9.359063 -25.546125 29.837540 -4.883179 24.339230 -48.114685 -48.486136 42.191834 -84.900217 -38.118163 -35.763500 -71.435992 35.227852 0.000000 0.000000 0.000000 14.755610 -20.452776 3.313930 13.784970 9.668803 -19.371198 -8.185700 -24.471092 57.392055 37.524737 -61.615085 2.351163 0.000000 0.000000 0.000000 6.410714 -1.089687 12.785549 6.809083 -1.361542 -3.279398 -12.475808 -0.448203 -15.689120 8.744442 -0.558071 -19.519194 2.057329 -0.665674 19.242850 0.000000 0.000000 0.000000 0.251391 -0.452207 16.188913 -68.936985 -4.962508 7.840460 -159.586109 -86.376950 178.302096 14.564456 -17.155299 -0.947254 15.212102 -16.819662 0.000000 0.000000 0.000000 0.000000 0.000000 0.000000 0.000000 -22.145507 -13.428975 -4.948349 93.576256 17.253739 16.786308 39.578660 -60.563849 1.715523 -18.386997 26.364122 0.745363 -18.801382 25.979442 0.000000 0.000000 0.000000 0.000000 0.000000 0.000000 0.000000 
-1.914623 16.411648 24.913465 -3.302259 24.520435 9.188802 -25.514132 31.219254 -4.987398 23.193841 -49.542086 -47.654013 41.710582 -84.739145 -37.879228 -35.691218 -71.522722 34.875836 0.000000 0.000000 0.000000 14.837579 -20.736896 3.721878 13.388919 8.978153 -19.149917 -7.639298 -24.329571 56.643674 37.834994 -62.309447 2.710206 0.000000 0.000000 0.000000 6.328400 -1.345274 12.996041 6.899903 -1.676061 -3.316014 -12.502870 -0.779089 -15.640770 8.701152 -0.562785 -19.528291 2.063420 -0.664246 19.241613 0.000000 0.000000 0.000000 0.217081 -0.632178 16.230035 -68.940043 -4.990721 7.855929 -159.571595 -86.381149 178.308086 14.548195 -17.141118 -0.943839 15.193567 -16.806633 0.000000 0.000000 0.000000 0.000000 0.000000 0.000000 0.000000 -22.200446 -13.546625 -4.914045 93.564020 17.184069 16.768050 39.598362 -60.579316 1.715348 -18.374147 26.334611 0.746194 -18.785475 25.951856 0.000000 0.000000 0.000000 0.000000 0.000000 0.000000 0.000000 
-1.913877 16.440628 25.078982 -2.923768 25.343811 9.012308 -25.447561 32.580266 -5.096789 21.985386 -51.001347 -46.699215 40.972726 -84.435741 -37.352573 -35.616261 -71.471242 34.423337 0.000000 0.000000 0.000000 14.912487 -21.025577 4.155748 12.970153 8.307223 -18.941079 -7.081082 -24.183793 55.893440 38.094491 -62.946285 3.061388 0.000000 0.000000 0.000000 6.229567 -1.599976 13.214169 6.991828 -1.985085 -3.337901 -12.532787 -1.104254 -15.595473 8.658383 -0.567167 -19.541090 2.069706 -0.662408 19.236086 0.000000 0.000000 0.000000 0.181696 -0.814789 16.269838 -68.944312 -5.028026 7.848347 -159.535336 -86.370633 178.302539 14.557863 -17.129902 -0.946842 15.204163 -16.794837 0.000000 0.000000 0.000000 0.000000 0.000000 0.000000 0.000000 -22.256711 -13.657960 -4.879565 93.552093 17.126645 16.734280 39.630152 -60.605485 1.713332 -18.342377 26.270741 0.746703 -18.748513 25.891598 0.000000 0.000000 0.000000 0.000000 0.000000 0.000000 0.000000 
-1.911034 16.469209 25.239922 -2.537592 26.115441 8.838101 -25.339782 33.900771 -5.203450 20.729707 -52.467294 -45.634696 40.022086 -83.956979 -36.573730 -35.543832 -71.288006 33.850440 0.000000 0.000000 0.000000 14.977233 -21.317590 4.597870 12.553218 7.675377 -18.744725 -6.535262 -24.005001 55.174379 38.320788 -63.553809 3.409931 0.000000 0.000000 0.000000 6.113217 -1.845708 13.446035 7.080395 -2.282131 -3.362098 -12.559546 -1.417632 -15.551782 8.617813 -0.571070 -19.553506 2.073770 -0.660467 19.230334 0.000000 0.000000 0.000000 0.146827 -0.986808 16.308927 -68.946211 -5.054074 7.858201 -159.515067 -86.373759 178.308080 14.543136 -17.113965 -0.943658 15.187163 -16.780008 0.000000 0.000000 0.000000 0.000000 0.000000 0.000000 0.000000 -22.307773 -13.767717 -4.846691 93.538619 17.066940 16.707108 39.652105 -60.624957 1.711758 -18.325726 26.234855 0.746835 -18.728859 25.857743 0.000000 0.000000 0.000000 0.000000 0.000000 0.000000 0.000000 
-1.906463 16.497305 25.396507 -2.146589 26.830249 8.666200 -25.193000 35.174204 -5.306578 19.423891 -53.928396 -44.470724 38.862259 -83.325347 -35.546320 -35.473378 -70.975899 33.148960 0.000000 0.000000 0.000000 15.032138 -21.609199 5.046148 12.139011 7.083879 -18.558996 -6.001742 -23.794519 54.488170 38.516849 -64.134572 3.754922 0.000000 0.000000 0.000000 5.980884 -2.080811 13.690464 7.164798 -2.565797 -3.388830 -12.582938 -1.717746 -15.509668 8.579519 -0.574509 -19.565583 2.075511 -0.658452 19.224318 0.000000 0.000000 0.000000 0.112645 -1.147210 16.347174 -68.945337 -5.067777 7.886895 -159.512469 -86.391742 178.325754 14.501548 -17.092695 -0.933705 15.139806 -16.761693 0.000000 0.000000 0.000000 0.000000 0.000000 0.000000 0.000000 -22.353207 -13.875398 -4.815638 93.523881 17.004668 16.687593 39.662966 -60.636776 1.710768 -18.325500 26.229393 0.746624 -18.727952 25.852622 0.000000 0.000000 0.000000 0.000000 0.000000 0.000000 0.000000 
-1.900726 16.524879 25.549275 -1.753342 27.505414 8.483391 -25.022114 36.420521 -5.409945 18.034143 -55.378887 -43.210816 37.415295 -82.635266 -34.206296 -35.399178 -70.526026 32.321449 0.000000 0.000000 0.000000 15.079194 -21.905657 5.514721 11.718357 6.524532 -18.381466 -5.465491 -23.568556 53.818139 38.682862 -64.683428 4.090348 0.000000 0.000000 0.000000 5.839090 -2.310055 13.950365 7.244934 -2.840469 -3.408644 -12.605268 -2.007696 -15.468535 8.541622 -0.577773 -19.579690 2.076481 -0.656468 19.215906 0.000000 0.000000 0.000000 0.080568 -1.304646 16.385145 -68.940178 -5.065746 7.942865 -159.533586 -86.433027 178.361870 14.419259 -17.062282 -0.913478 15.046424 -16.737013 0.000000 0.000000 0.000000 0.000000 0.000000 0.000000 0.000000 -22.396645 -13.982018 -4.787330 93.509668 16.947299 16.666282 39.674656 -60.650168 1.709348 -18.323177 26.220721 0.746225 -18.724862 25.844404 0.000000 0.000000 0.000000 0.000000 0.000000 0.000000 0.000000 
